# xmcd
#
# Track frame offsets: 
#        150
#        16960
#        40193
#        57665
#        71750
#        90023
#        106538
#        124780
#        144995
#        165630
#
# Disc length: 2552 seconds
#
# Revision: 2
# Processed by: cddbd v1.5.2PL0 Copyright (c) Steve Scherf et al.
# Submitted via: ExactAudioCopyFreeDBPlugin 1.0
#
DISCID=7809f60a
DTITLE=John Hammond - Got Love If You Want It
DYEAR=1992
DGENRE=Blues
TTITLE0=I've Got Love If You Want It
TTITLE1=Driftin' Blues
TTITLE2=Dreamy Eyed Girl
TTITLE3=Mattie Mae
TTITLE4=You Don't Love Me
TTITLE5=Nadine
TTITLE6=No One Can Forgive Me But My Baby
TTITLE7=You're So Fine
TTITLE8=No Place To Go
TTITLE9=Preachin' Blues
EXTD=
EXTT0=
EXTT1=
EXTT2=
EXTT3=
EXTT4=
EXTT5=
EXTT6=
EXTT7=
EXTT8=
EXTT9=
PLAYORDER=
